<?xml version="1.0" encoding="UTF-8"?>
<svg version="1.1" xmlns="http://www.w3.org/2000/svg" width="512" height="512">
<path d="M0 0 C24.04457683 18.90044096 38.81442571 44.4323765 43.28955078 74.69042969 C45.2821569 109.96642907 37.7969889 139.97221275 14.02783203 166.72949219 C-3.9461542 186.40720359 -30.31132605 200.15911298 -57.11645508 201.91333008 C-60.83802198 202.03025248 -64.54955164 202.07063459 -68.27294922 202.06542969 C-69.26165009 202.06461395 -69.26165009 202.06461395 -70.27032471 202.06378174 C-81.25146735 202.02224063 -91.26708642 201.07537757 -101.71044922 197.69042969 C-102.39204102 197.47612305 -103.07363281 197.26181641 -103.77587891 197.04101562 C-118.003968 192.45841028 -130.39657324 185.50329393 -141.71044922 175.69042969 C-142.51869141 175.0265625 -143.32693359 174.36269531 -144.15966797 173.67871094 C-160.82940498 159.52121059 -171.58749936 140.47784444 -177.71044922 119.69042969 C-178.05076172 118.58441406 -178.39107422 117.47839844 -178.74169922 116.33886719 C-185.78551602 88.48970262 -180.69576603 57.57861595 -166.57763672 32.84277344 C-150.76554247 6.58926916 -127.15115849 -10.6193679 -98.06591797 -19.48535156 C-63.85293083 -27.88924014 -28.03931841 -21.46772822 0 0 Z " fill="#FEBA32" transform="translate(316.71044921875,150.3095703125)"/>
<path d="M0 0 C1.13924927 0.1102652 2.27849854 0.2205304 3.45227051 0.33413696 C10.01611051 1.08585038 16.56446815 1.92264204 23.10839844 2.82885742 C24.21710674 2.9817369 24.21710674 2.9817369 25.3482132 3.13770485 C29.25889008 3.67782083 33.16877385 4.22332413 37.078125 4.77294922 C40.26693101 5.22026874 43.45689965 5.65708709 46.6484375 6.08447266 C80.09578852 10.57033978 80.09578852 10.57033978 94.12402344 16.75463867 C96.15377203 17.56310586 98.18492486 18.36806069 100.21777344 19.16870117 C102.91239016 20.26494638 105.60203182 21.37040284 108.28417969 22.49682617 C124.18997526 28.92249608 139.19160914 30.37880461 156.18652344 30.50463867 C158.13251247 30.5328814 160.07847766 30.56281995 162.02441406 30.59448242 C166.7242395 30.66734595 171.42378546 30.71751553 176.12402344 30.75463867 C176.10299561 29.99103027 176.08196777 29.22742188 176.06030273 28.44067383 C176.03577026 26.94479736 176.03577026 26.94479736 176.01074219 25.41870117 C175.98971436 24.42821777 175.96868652 23.43773437 175.94702148 22.41723633 C176.12402344 19.75463867 176.12402344 19.75463867 177.93652344 17.12963867 C181.59633725 14.82918428 184.47090592 14.63178411 188.69702148 14.64111328 C190.43236145 14.64129456 190.43236145 14.64129456 192.20275879 14.64147949 C193.41814331 14.64659546 194.63352783 14.65171143 195.88574219 14.65698242 C197.00323853 14.6579895 198.12073486 14.65899658 199.27209473 14.66003418 C203.45191472 14.66527152 207.63172009 14.67923276 211.81152344 14.69213867 C225.82621094 14.72307617 225.82621094 14.72307617 240.12402344 14.75463867 C240.12402344 51.38463867 240.12402344 88.01463867 240.12402344 125.75463867 C230.49214844 125.83713867 220.86027344 125.91963867 210.93652344 126.00463867 C207.90182861 126.04105469 204.86713379 126.0774707 201.74047852 126.11499023 C199.33317777 126.12667348 196.92586913 126.13686616 194.51855469 126.14526367 C193.27021851 126.16572754 192.02188232 126.18619141 190.73571777 126.20727539 C189.53846069 126.20775879 188.34120361 126.20824219 187.10766602 126.20874023 C186.07064041 126.21762268 185.03361481 126.22650513 183.96516418 126.23565674 C180.26539847 125.60926955 178.64160912 124.52648777 176.12402344 121.75463867 C175.63574219 118.73901367 175.63574219 118.73901367 175.81152344 115.50463867 C175.87919922 113.8881543 175.87919922 113.8881543 175.94824219 112.23901367 C176.00625 111.41916992 176.06425781 110.59932617 176.12402344 109.75463867 C168.35087537 109.81652933 160.57804377 109.89410158 152.80525398 109.99035358 C149.19392354 110.03460927 145.58269442 110.07395586 141.97119141 110.10107422 C122.61405906 110.2518794 104.84398369 110.8802613 86.28460693 116.85655212 C54.16323801 127.1952961 27.38963147 131.89741364 -6.00097656 124.75463867 C-6.72052017 124.60628193 -7.44006378 124.45792519 -8.18141174 124.30507278 C-30.7380165 119.65025613 -49.88049077 111.01617052 -69.87597656 99.75463867 C-71.91395542 98.63750935 -73.95384876 97.52386189 -75.99609375 96.41455078 C-79.41006916 94.55961709 -82.8173983 92.69335391 -86.21972656 90.81713867 C-92.29769401 87.49790285 -98.45205133 84.32990368 -104.61080933 81.16430664 C-110.03851914 78.37267767 -115.45713691 75.56343354 -120.87597656 72.75463867 C-121.92382324 72.21323242 -122.97166992 71.67182617 -124.05126953 71.11401367 C-126.85613839 69.65660436 -129.64893525 68.17862598 -132.43847656 66.69213867 C-133.24687988 66.27569092 -134.0552832 65.85924316 -134.88818359 65.43017578 C-140.59941326 62.34566392 -143.76802504 59.07849324 -145.87597656 52.75463867 C-146.2721231 47.505697 -145.74154973 44.20121773 -142.87597656 39.75463867 C-137.9690777 35.32646165 -134.88725538 34.29230251 -128.38641357 34.36584473 C-120.82208521 35.2036222 -113.69976652 38.04693053 -106.54003906 40.52026367 C-104.77136902 41.11752587 -103.00218323 41.71326276 -101.23251343 42.30755615 C-96.59329418 43.8697674 -91.9609372 45.45139735 -87.32989502 47.03765869 C-81.72995018 48.95183 -76.12221342 50.84301884 -70.51566124 52.73772812 C-66.14730697 54.21449575 -61.78012003 55.6944273 -57.41641235 57.18487549 C-52.90807752 58.72366719 -48.39427318 60.24536693 -43.87597656 61.75463867 C-42.64563187 62.16750122 -41.41528717 62.58036377 -40.1476593 63.0057373 C-34.00957615 64.99204583 -28.35892585 66.40941009 -21.90332031 66.56713867 C-21.10825073 66.59428955 -20.31318115 66.62144043 -19.49401855 66.64941406 C-16.93318489 66.71673578 -14.37513647 66.74217886 -11.81347656 66.75463867 C-10.93321808 66.76398438 -10.05295959 66.77333008 -9.14602661 66.78295898 C10.70572518 66.861671 27.95354743 61.29628045 46.12402344 53.75463867 C43.16853087 52.16116285 40.32394709 51.15714789 37.08349609 50.29003906 C36.08210602 50.01958267 35.08071594 49.74912628 34.04898071 49.47047424 C32.97288544 49.18397507 31.89679016 48.89747589 30.78808594 48.60229492 C28.50420439 47.98455759 26.2203511 47.3667158 23.93652344 46.7487793 C20.34041456 45.78121968 16.74376563 44.81573086 13.14648438 43.85253906 C9.6713607 42.92039217 6.198406 41.98048182 2.72558594 41.03979492 C1.11751572 40.6130825 1.11751572 40.6130825 -0.52304077 40.17774963 C-8.82537433 37.92350523 -14.66868975 35.98698146 -19.87597656 28.75463867 C-22.38605986 24.33211096 -22.53853953 19.71557892 -21.87597656 14.75463867 C-20.01818119 8.85402724 -16.9394214 5.19778116 -11.87597656 1.75463867 C-7.65328396 0.04029474 -4.52152092 -0.4431663 0 0 Z " fill="#FFD199" transform="translate(247.8759765625,367.245361328125)"/>
<path d="M0 0 C1.73533997 0.00018127 1.73533997 0.00018127 3.5057373 0.00036621 C4.72112183 0.00548218 5.93650635 0.01059814 7.1887207 0.01586914 C8.30621704 0.01687622 9.42371338 0.0178833 10.57507324 0.0189209 C14.75489323 0.02415824 18.93469861 0.03811948 23.11450195 0.05102539 C37.12918945 0.08196289 37.12918945 0.08196289 51.42700195 0.11352539 C51.42700195 36.74352539 51.42700195 73.37352539 51.42700195 111.11352539 C41.79512695 111.19602539 32.16325195 111.27852539 22.23950195 111.36352539 C19.20480713 111.39994141 16.1701123 111.43635742 13.04345703 111.47387695 C10.63615629 111.4855602 8.22884765 111.49575288 5.8215332 111.50415039 C4.57319702 111.52461426 3.32486084 111.54507813 2.03869629 111.56616211 C0.84143921 111.56664551 -0.35581787 111.56712891 -1.58935547 111.56762695 C-3.14489388 111.58095062 -3.14489388 111.58095062 -4.7318573 111.59454346 C-8.56515662 110.94554843 -10.05963304 110.10945875 -12.57299805 107.11352539 C-13.30830094 103.86411772 -13.24569915 100.67936441 -13.20410156 97.35961914 C-13.21125687 96.37059601 -13.21841217 95.38157288 -13.2257843 94.36257935 C-13.24270041 91.09159227 -13.22325082 87.82197007 -13.2019043 84.55102539 C-13.20273272 82.27945848 -13.2051911 80.00789163 -13.20921326 77.73632812 C-13.21207327 72.9748328 -13.19734959 68.21380734 -13.16992188 63.45239258 C-13.13583933 57.34541097 -13.1418557 51.23926975 -13.16058445 45.13224792 C-13.17114703 40.44137555 -13.16222325 35.75069912 -13.14719963 31.05984497 C-13.14201194 28.8079588 -13.1425067 26.55605221 -13.14874458 24.3041687 C-13.15418763 21.15814121 -13.13384976 18.01332157 -13.10644531 14.86743164 C-13.11297119 13.93432159 -13.11949707 13.00121155 -13.1262207 12.03982544 C-13.03290893 5.74816735 -13.03290893 5.74816735 -10.72715759 2.56640625 C-7.12054138 0.13391063 -4.23790008 -0.00935519 0 0 Z " fill="#2870CB" transform="translate(436.572998046875,381.886474609375)"/>
<path d="M0 0 C3.07678681 1.37207757 5.18280642 2.93492694 7.55609131 5.31558228 C8.58665901 6.34202599 8.58665901 6.34202599 9.63804626 7.38920593 C10.75258934 8.51453484 10.75258934 8.51453484 11.88964844 9.66259766 C12.68027176 10.45292892 13.47089508 11.24326019 14.28547668 12.05754089 C16.89821109 14.67166891 19.50378954 17.29281044 22.109375 19.9140625 C23.91926192 21.72767943 25.72959083 23.54085537 27.54034424 25.35360718 C31.81862071 29.63874034 36.09241301 33.92829651 40.36406636 38.22002828 C45.22831018 43.10663779 50.09824386 47.9875599 54.96866179 52.86801457 C64.98544799 62.90569789 74.99507421 72.95049593 85 83 C87.90430489 81.60639851 89.93125834 80.29513674 92.1640625 77.9609375 C93.01097656 77.09082031 93.01097656 77.09082031 93.875 76.203125 C94.4525 75.59984375 95.03 74.9965625 95.625 74.375 C96.77917517 73.16998011 97.93781463 71.96921513 99.1015625 70.7734375 C99.61025879 70.24153809 100.11895508 69.70963867 100.64306641 69.16162109 C102 68 102 68 104 68 C104.71720833 75.68589039 105.4286804 83.37229654 106.13623047 91.05908203 C106.3774326 93.67215909 106.61993136 96.28511682 106.86376953 98.89794922 C107.21470377 102.6608237 107.56092138 106.42410744 107.90625 110.1875 C108.07030334 111.93015137 108.07030334 111.93015137 108.2376709 113.70800781 C108.76456564 119.50066949 109.1242846 125.18348085 109 131 C95.25229419 130.35654979 81.57635193 129.2210861 67.875 127.9375 C65.83726726 127.74904949 63.79950695 127.5608968 61.76171875 127.37304688 C56.84082253 126.91878397 51.92031263 126.46053921 47 126 C47 123 47 123 48.28515625 121.37426758 C48.87167969 120.80345459 49.45820312 120.2326416 50.0625 119.64453125 C50.69414063 119.02255859 51.32578125 118.40058594 51.9765625 117.75976562 C52.64429687 117.11716797 53.31203125 116.47457031 54 115.8125 C54.66773437 115.15830078 55.33546875 114.50410156 56.0234375 113.83007812 C57.67578441 112.21313865 59.33471601 110.60359509 61 109 C59.62792243 105.92321319 58.06507306 103.81719358 55.68441772 101.44390869 C55.00012192 100.75686356 54.31582611 100.06981842 53.61079407 99.36195374 C52.8605748 98.61892502 52.11035553 97.8758963 51.33740234 97.11035156 C50.54707108 96.31972824 49.75673981 95.52910492 48.94245911 94.71452332 C46.32833109 92.10178891 43.70718956 89.49621046 41.0859375 86.890625 C39.27232057 85.08073808 37.45914463 83.27040917 35.64639282 81.45965576 C31.36125966 77.18137929 27.07170349 72.90758699 22.77997172 68.63593364 C17.89336221 63.77168982 13.0124401 58.90175614 8.13198543 54.03133821 C-1.90569789 44.01455201 -11.95049593 34.00492579 -22 24 C-20.30145963 20.37916872 -18.28895218 18.05744646 -15.4296875 15.234375 C-14.08583984 13.90019531 -14.08583984 13.90019531 -12.71484375 12.5390625 C-11.77769531 11.61867188 -10.84054688 10.69828125 -9.875 9.75 C-8.92011363 8.80515144 -7.96568141 7.85984367 -7.01171875 6.9140625 C-4.67890913 4.60481662 -2.34155914 2.30036797 0 0 Z " fill="#43A548" transform="translate(41,11)"/>
<path d="M0 0 C5.28 0 10.56 0 16 0 C16 4.29 16 8.58 16 13 C17.98 13 19.96 13 22 13 C25.22765508 14.293182 28.07212384 16.13334289 31 18 C31.886875 18.556875 32.77375 19.11375 33.6875 19.6875 C38.89324542 24.89324542 43.72751356 32.6565662 44.1953125 40.11328125 C44.13020833 43.07552083 44.06510417 46.03776042 44 49 C38.72 49 33.44 49 28 49 C27.9175 47.47375 27.835 45.9475 27.75 44.375 C27.17023321 38.60182926 25.33929595 35.05574493 20.9375 31.1875 C16.72090225 28.60313364 12.47532996 28.74851737 7.6875 28.6875 C6.56698242 28.64399414 6.56698242 28.64399414 5.42382812 28.59960938 C0.12584151 28.5391407 -2.7849229 29.52429924 -7 33 C-10.70136323 37.18838471 -11.59406206 40.39485244 -11.3203125 45.82421875 C-10.63754896 50.462015 -8.87329007 53.21190896 -5.4375 56.3125 C-1.84403709 58.80028202 0.34083659 59.12946642 4.71289062 59.28979492 C16.12371352 59.71489923 26.13580145 61.13712758 35 69 C41.44153991 76.56020429 44.47543504 83.17670246 44.24609375 93.1328125 C43.53532929 101.41378259 40.53512517 108.76105503 35 115 C32.1541645 117.30730065 29.20129776 119.22473488 26 121 C25.37351562 121.38285156 24.74703125 121.76570313 24.1015625 122.16015625 C22 123 22 123 16 123 C16 127.29 16 131.58 16 136 C10.72 136 5.44 136 0 136 C0 131.71 0 127.42 0 123 C-1.98 123 -3.96 123 -6 123 C-9.22765508 121.706818 -12.07212384 119.86665711 -15 118 C-15.886875 117.443125 -16.77375 116.88625 -17.6875 116.3125 C-24.33086544 109.66913456 -28.07747556 101.4516723 -28.125 92.125 C-28.08375 90.43375 -28.0425 88.7425 -28 87 C-22.72 87 -17.44 87 -12 87 C-11.6596875 89.784375 -11.6596875 89.784375 -11.3125 92.625 C-10.36684397 98.31234974 -9.26176651 101.14411601 -5 105 C-1.19724563 107.61665717 2.93008949 107.33159326 7.375 107.3125 C8.48875 107.33666992 8.48875 107.33666992 9.625 107.36132812 C14.486558 107.36562279 17.7799283 106.65098957 22 104 C26.35055624 99.29669595 27.35621669 95.52832313 27.28515625 89.28515625 C26.72881312 84.82679007 24.20582561 82.05966493 20.9375 79.1875 C17.89958672 77.32555315 15.35063222 76.87817449 11.8671875 76.82421875 C-5.35852588 76.37605604 -5.35852588 76.37605604 -12 72 C-13.03640625 71.38318359 -13.03640625 71.38318359 -14.09375 70.75390625 C-20.8090434 66.33133429 -25.10116967 59.75246784 -27.375 52.0625 C-29.50348278 41.06533896 -27.50784554 33.01176831 -21.375 23.8125 C-17.35167538 18.65439151 -11.75475763 15.87737881 -6 13 C-4.02 13 -2.04 13 0 13 C0 8.71 0 4.42 0 0 Z " fill="#9A701F" transform="translate(240,172)"/>
<path d="M0 0 C0.13463004 7.30031382 -0.39361772 14.42734048 -1.09375 21.69140625 C-1.26022034 23.4701841 -1.26022034 23.4701841 -1.43005371 25.28489685 C-1.78279967 29.0444775 -2.1413105 32.80348223 -2.5 36.5625 C-2.74126739 39.12301091 -2.98215678 41.68355747 -3.22265625 44.24414062 C-3.81073059 50.4965129 -4.4035295 56.74842342 -5 63 C-8.52344644 61.3413812 -10.79901878 59.43342692 -13.546875 56.6484375 C-14.39121094 55.79765625 -15.23554688 54.946875 -16.10546875 54.0703125 C-16.97816406 53.18085937 -17.85085938 52.29140625 -18.75 51.375 C-19.63816406 50.4778125 -20.52632813 49.580625 -21.44140625 48.65625 C-23.63216969 46.44192996 -25.81812763 44.22307565 -28 42 C-33.21063922 46.35695899 -38.07416581 50.9358616 -42.86303711 55.74951172 C-43.61508423 56.50141281 -44.36713135 57.2533139 -45.14196777 58.02799988 C-47.60613996 60.492864 -50.06675951 62.96124211 -52.52734375 65.4296875 C-54.24347927 67.14768975 -55.95983694 68.86547012 -57.67640686 70.58303833 C-62.17813208 75.08856861 -66.67684517 79.59709471 -71.17492676 84.10626221 C-75.77169509 88.71328801 -80.37132077 93.31745913 -84.97070312 97.921875 C-93.98325932 106.94513302 -102.99273182 115.97146348 -112 125 C-115.63303084 123.30413874 -117.94549046 121.26199512 -120.75 118.375 C-121.54921875 117.55773437 -122.3484375 116.74046875 -123.171875 115.8984375 C-123.77515625 115.27195312 -124.3784375 114.64546875 -125 114 C-123.62792243 110.92321319 -122.06507306 108.81719358 -119.68441772 106.44390869 C-119.00012192 105.75686356 -118.31582611 105.06981842 -117.61079407 104.36195374 C-116.48546516 103.24741066 -116.48546516 103.24741066 -115.33740234 102.11035156 C-114.54707108 101.31972824 -113.75673981 100.52910492 -112.94245911 99.71452332 C-110.32833109 97.10178891 -107.70718956 94.49621046 -105.0859375 91.890625 C-103.27232057 90.08073808 -101.45914463 88.27040917 -99.64639282 86.45965576 C-95.36125966 82.18137929 -91.07170349 77.90758699 -86.77997172 73.63593364 C-81.89336221 68.77168982 -77.0124401 63.90175614 -72.13198543 59.03133821 C-62.09430211 49.01455201 -52.04950407 39.00492579 -42 29 C-42.9563107 27.87722223 -43.91362762 26.75530143 -44.87136841 25.63374329 C-45.40436617 25.00888188 -45.93736393 24.38402048 -46.48651314 23.74022388 C-48.19950347 21.7706087 -49.99364167 19.92263122 -51.8671875 18.10546875 C-52.85332031 17.13770508 -52.85332031 17.13770508 -53.859375 16.15039062 C-55.22491759 14.82057444 -56.59215877 13.49250063 -57.9609375 12.16601562 C-58.610625 11.52728516 -59.2603125 10.88855469 -59.9296875 10.23046875 C-60.51991699 9.65707764 -61.11014648 9.08368652 -61.71826172 8.49291992 C-63 7 -63 7 -63 5 C-55.47491666 4.28202268 -47.94922931 3.57065193 -40.4230957 2.86376953 C-37.86533627 2.6227614 -35.30771639 2.38026721 -32.75024414 2.13623047 C-29.06432622 1.78478081 -25.37793178 1.43876056 -21.69140625 1.09375 C-19.98930748 0.92969666 -19.98930748 0.92969666 -18.25282288 0.7623291 C-12.13601546 0.1956017 -6.14292468 -0.11328584 0 0 Z " fill="#E65C61" transform="translate(471,17)"/>
<path d="M0 0 C5.28 0 10.56 0 16 0 C16 5.28 16 10.56 16 16 C10.72 16 5.44 16 0 16 C0 10.72 0 5.44 0 0 Z " fill="#338CFF" transform="translate(448,448)"/>
</svg>
